<?xml version="1.0" encoding="utf-8"?>
<!-- Generator: Adobe Illustrator 17.0.0, SVG Export Plug-In . SVG Version: 6.00 Build 0)  -->
<!DOCTYPE svg PUBLIC "-//W3C//DTD SVG 1.1//EN" "http://www.w3.org/Graphics/SVG/1.1/DTD/svg11.dtd">
<svg version="1.1" id="圖層_1" xmlns="http://www.w3.org/2000/svg" xmlns:xlink="http://www.w3.org/1999/xlink" x="0px" y="0px"
	 width="80px" height="80px" viewBox="0 0 80 80" enable-background="new 0 0 80 80" xml:space="preserve">
<g>
	<path fill="#8E8E8E" d="M55.185,48.805c3.707,3.692,7.32,7.3,10.945,10.896c1.517,1.505,2.087,3.262,1.279,5.279
		c-1.251,3.122-5.059,3.837-7.609,1.389c-2.861-2.747-5.622-5.6-8.435-8.398c-0.877-0.872-1.678-2.207-2.705-2.424
		c-0.906-0.192-2.075,0.889-3.136,1.39c-14.925,7.06-32.638-3.681-33.282-20.18c-0.523-13.411,9.803-24.537,23.17-24.594
		c9.098-0.039,16.202,4.034,20.686,11.976c4.358,7.719,4.135,15.621-0.176,23.383C55.707,47.911,55.48,48.292,55.185,48.805z
		 M35.906,53.53c10.085-0.259,17.989-8.446,17.72-18.353c-0.269-9.884-8.536-17.705-18.467-17.469
		c-9.689,0.23-17.663,8.567-17.424,18.22C17.979,45.818,26.198,53.78,35.906,53.53z"/>
</g>
<g>
</g>
<g>
</g>
<g>
</g>
<g>
</g>
<g>
</g>
<g>
</g>
</svg>
